<?xml version="1.0" encoding="UTF-8" standalone="no"?>
<!-- Created with Inkscape (http://www.inkscape.org/) -->

<svg
   xmlns:dc="http://purl.org/dc/elements/1.1/"
   xmlns:cc="http://creativecommons.org/ns#"
   xmlns:rdf="http://www.w3.org/1999/02/22-rdf-syntax-ns#"
   xmlns:svg="http://www.w3.org/2000/svg"
   xmlns="http://www.w3.org/2000/svg"
   xmlns:sodipodi="http://sodipodi.sourceforge.net/DTD/sodipodi-0.dtd"
   xmlns:inkscape="http://www.inkscape.org/namespaces/inkscape"
   width="48"
   height="48"
   id="svg2"
   version="1.1"
   inkscape:version="0.48.4 r9939"
   sodipodi:docname="icon.svg"
   inkscape:export-filename="/home/jtyr/Documents/projects/android/LegoIRController/app/src/main/res/drawable/icon.png"
   inkscape:export-xdpi="90"
   inkscape:export-ydpi="90">
  <defs
     id="defs4" />
  <sodipodi:namedview
     id="base"
     pagecolor="#ffffff"
     bordercolor="#666666"
     borderopacity="1.0"
     inkscape:pageopacity="0.0"
     inkscape:pageshadow="2"
     inkscape:zoom="6.3492297"
     inkscape:cx="10.739699"
     inkscape:cy="23.792413"
     inkscape:document-units="px"
     inkscape:current-layer="layer1"
     showgrid="false"
     showguides="true"
     inkscape:guide-bbox="true"
     inkscape:window-width="1267"
     inkscape:window-height="639"
     inkscape:window-x="431"
     inkscape:window-y="259"
     inkscape:window-maximized="0">
    <sodipodi:guide
       orientation="1,0"
       position="0,39.090487"
       id="guide2985" />
    <sodipodi:guide
       orientation="1,0"
       position="48,37.75406"
       id="guide2987" />
    <sodipodi:guide
       orientation="0,1"
       position="24.50116,0"
       id="guide2989" />
    <sodipodi:guide
       orientation="0,1"
       position="22.162413,48"
       id="guide2991" />
    <sodipodi:guide
       orientation="0,1"
       position="62.212272,47"
       id="guide3929" />
    <sodipodi:guide
       orientation="0,1"
       position="-7.2389791,8"
       id="guide3935" />
    <sodipodi:guide
       orientation="0,1"
       position="-9.0208817,40"
       id="guide3937" />
  </sodipodi:namedview>
  <metadata
     id="metadata7">
    <rdf:RDF>
      <cc:Work
         rdf:about="">
        <dc:format>image/svg+xml</dc:format>
        <dc:type
           rdf:resource="http://purl.org/dc/dcmitype/StillImage" />
        <dc:title />
      </cc:Work>
    </rdf:RDF>
  </metadata>
  <g
     inkscape:label="Layer 1"
     inkscape:groupmode="layer"
     id="layer1"
     transform="translate(0,-1004.3622)">
    <rect
       ry="4"
       rx="4"
       transform="translate(0,1004.3622)"
       y="0"
       x="0"
       height="48"
       width="48"
       id="rect3931"
       style="fill:#ffb380;fill-opacity:1;stroke:none" />
    <rect
       style="fill:#fff500;fill-opacity:1;stroke:none"
       id="rect3927"
       width="48"
       height="48"
       x="0"
       y="0"
       rx="4"
       ry="4"
       transform="translate(0,1004.3622)" />
    <rect
       style="fill:#ffbb00;fill-opacity:1;stroke:none"
       id="rect3933"
       width="48"
       height="47"
       x="0"
       y="1005.3622"
       rx="4"
       ry="4" />
    <g
       id="g3913"
       transform="matrix(1.0195762,0,0,1.0195762,-0.30924614,-20.534551)">
      <g
         transform="translate(-0.15749942,7.0110425)"
         id="g3904">
        <path
           id="path3041"
           d="m 21.925479,1020.5989 c -1.488483,-1.4575 -4.958356,-2.0434 -6.913203,0.052 -1.913462,2.0433 -3.459142,6.9702 -3.459142,11.6171 0,5.6064 4.698974,6.3844 7.260608,3.6304 1.483003,-1.5974 1.623311,-1.8468 2.5932,-3.1117 l 5.186116,0 c 0.974912,1.2649 1.109684,1.5142 2.593029,3.1117 2.56192,2.754 7.260779,1.976 7.260779,-3.6304 0,-4.6469 -1.545737,-9.5738 -3.459142,-11.6171 -1.954904,-2.0953 -5.419754,-1.5094 -6.913318,-0.052 -0.575848,0.5601 -1.33594,0.7778 -2.074435,0.7778 -0.738495,0 -1.499214,-0.2177 -2.074492,-0.7778 z"
           clip-rule="evenodd"
           inkscape:connector-curvature="0"
           style="fill:#010101;fill-rule:evenodd"
           sodipodi:nodetypes="ccsccccscczc" />
        <g
           id="g3054">
          <path
             inkscape:transform-center-y="-0.4980569"
             transform="translate(2.6728538,1005.3088)"
             d="m 17.539705,20.764094 -3.450639,0 1.725319,-2.988341 z"
             inkscape:randomized="0"
             inkscape:rounded="0"
             inkscape:flatsided="true"
             sodipodi:arg2="1.5707963"
             sodipodi:arg1="0.52359878"
             sodipodi:r2="0.99611384"
             sodipodi:r1="1.9922276"
             sodipodi:cy="19.767981"
             sodipodi:cx="15.814385"
             sodipodi:sides="3"
             id="path3050"
             style="fill:#808080;fill-opacity:1;stroke:none"
             sodipodi:type="star" />
          <path
             sodipodi:type="star"
             style="fill:#808080;fill-opacity:1;stroke:none"
             id="path3052"
             sodipodi:sides="3"
             sodipodi:cx="15.814385"
             sodipodi:cy="19.767981"
             sodipodi:r1="1.9922276"
             sodipodi:r2="0.99611384"
             sodipodi:arg1="0.52359878"
             sodipodi:arg2="1.5707963"
             inkscape:flatsided="true"
             inkscape:rounded="0"
             inkscape:randomized="0"
             d="m 17.539705,20.764094 -3.450639,0 1.725319,-2.988341 z"
             transform="matrix(1,0,0,-1,2.6728538,1048.4147)"
             inkscape:transform-center-y="0.49800952" />
        </g>
        <g
           id="g3826"
           transform="matrix(0,-1,1,0,-997.46036,1045.349)">
          <path
             sodipodi:type="star"
             style="fill:#808080;fill-opacity:1;stroke:none"
             id="path3828"
             sodipodi:sides="3"
             sodipodi:cx="15.814385"
             sodipodi:cy="19.767981"
             sodipodi:r1="1.9922276"
             sodipodi:r2="0.99611384"
             sodipodi:arg1="0.52359878"
             sodipodi:arg2="1.5707963"
             inkscape:flatsided="true"
             inkscape:rounded="0"
             inkscape:randomized="0"
             d="m 17.539705,20.764094 -3.450639,0 1.725319,-2.988341 z"
             transform="translate(2.6728538,1005.3088)"
             inkscape:transform-center-y="-0.4980569" />
          <path
             inkscape:transform-center-y="0.49800952"
             transform="matrix(1,0,0,-1,2.6728538,1048.4147)"
             d="m 17.539705,20.764094 -3.450639,0 1.725319,-2.988341 z"
             inkscape:randomized="0"
             inkscape:rounded="0"
             inkscape:flatsided="true"
             sodipodi:arg2="1.5707963"
             sodipodi:arg1="0.52359878"
             sodipodi:r2="0.99611384"
             sodipodi:r1="1.9922276"
             sodipodi:cy="19.767981"
             sodipodi:cx="15.814385"
             sodipodi:sides="3"
             id="path3830"
             style="fill:#808080;fill-opacity:1;stroke:none"
             sodipodi:type="star" />
        </g>
      </g>
      <g
         transform="matrix(0.04019679,0,0,0.04019679,13.556142,1009.2059)"
         id="g3886">
        <path
           inkscape:connector-curvature="0"
           d="m 256.1,96 0,0 c -79.9,0 -155.7,29.9 -213.9,84.1 l -10.2,9.5 9.9,9.8 32.3,32 9.3,9.2 9.6,-8.8 c 44.5,-40.9 102.3,-63.5 162.8,-63.5 60.5,0 118.4,22.6 162.8,63.5 l 9.6,8.8 9.3,-9.2 32.3,-32 9.9,-9.8 -10.2,-9.5 C 411.6,125.9 335.7,96 256.1,96 z"
           id="path3888" />
        <path
           inkscape:connector-curvature="0"
           d="M 397.4,256.4 C 358.6,221.3 308.5,202 256.3,202 h -0.1 -0.3 -8.5 l -0.1,0.2 c -49.2,2 -96,21.1 -132.6,54.2 l -10.5,9.5 10.1,10 32.7,32.4 9.1,9 9.6,-8.4 c 25.3,-22.2 57.4,-34.5 90.3,-34.5 33.1,0 65.2,12.3 90.5,34.5 l 9.6,8.4 9.1,-9 32.7,-32.4 10.1,-10 -10.6,-9.5 z"
           id="path3890" />
        <path
           inkscape:connector-curvature="0"
           d="m 256.2,416 9.6,-9.5 52.8,-52.2 10.6,-10.5 -11.6,-9.5 c -15.4,-11.4 -32.4,-20 -61.5,-20 -29,0 -44.9,9.4 -61.5,20 l -11.5,9.5 10.6,10.5 52.8,52.2 9.7,9.5 z"
           id="path3892" />
      </g>
    </g>
  </g>
</svg>
